# xmcd
#
# Track frame offsets:
#	183
#	13083
#	34233
#	48808
#	62158
#	88158
#	107883
#	118958
#	136283
#	169908
#	184833
#	197208
#	208883
#	218433
#
# Disc length: 3007
#
# Revision: 4
# Processed by: cddbd v1.5.1PL0 Copyright (c) Steve Scherf et al.
# Submitted via: EasyCDDAExtractor 7.1.3.1
# Normalized: r3:DSETVAR1
#
DISCID=d30bbd0e
DTITLE=Various Artist - Back To Blues I [CD1)
DYEAR=1990
DGENRE=Blues
TTITLE0=Muddy Waters - I'm Your Hoochie Coochie Man
TTITLE1=Alexis Korner All Stars - Stormy Monday
TTITLE2=John Lee Hooker - Sugar Mama
TTITLE3=Howlin' Wolf - Moanin' At Midnight
TTITLE4=Chuck Berry - Mean Old World
TTITLE5=Michael Bloomfield - When I Get Home
TTITLE6=Bo Diddley - The Story Of Bo Diddley
TTITLE7=Howlin' Wolf - Little Red Rooster
TTITLE8=Ten Years After - Love Like A Man
TTITLE9=Lighnin' Hopkins - Big Car Blues
TTITLE10=Bo Diddley - I'm A Man
TTITLE11=Sonny Boy Williamsaon - Bring It On Home
TTITLE12=The Fabulous Thunderbirds - That's Enough Of That Stuff
TTITLE13=Leo Kottke - Available Space
EXTD=YEAR: 1990 ID3G: 0
EXTT0=
EXTT1=
EXTT2=
EXTT3=
EXTT4=
EXTT5=
EXTT6=
EXTT7=
EXTT8=
EXTT9=
EXTT10=
EXTT11=
EXTT12=
EXTT13=
PLAYORDER=
